# xmcd
#
# Track frame offsets:
#  150
#  8142
#  31967
#  47885
#  69827
#  91530
#  106290
#  127586
#  170227
#  187575
#
# Disc length: 2783 seconds
#
# Revision: 0
# Processed by: cddbd v1.5.1PL2 Copyright (c) Steve Scherf et al.
# Submitted via: Collectorz.com_Music_Collector 6.9
#
DISCID=6b0add0a
DTITLE=Emmylou Harris - Powell 10th August 2001 [CD2]
DYEAR=2001
DGENRE=Bootleg - Contemporary Country
TTITLE0=Band Introductions
TTITLE1=Bang The Drum Slowly
TTITLE2=Calling My Children Home
TTITLE3=Hickory Wind
TTITLE4=Michaelangelo
TTITLE5=Wheels
TTITLE6=Born To Run
TTITLE7=The Maker
TTITLE8=Boulder To Birmingham
TTITLE9=Get Up John
EXTD=
EXTT0=
EXTT1=
EXTT2=
EXTT3=
EXTT4=
EXTT5=
EXTT6=
EXTT7=
EXTT8=
EXTT9=
PLAYORDER=
